<svg width="16" height="684" fill="none" xmlns="http://www.w3.org/2000/svg"><path d="M7.646 683.354a.5.5 0 00.708 0l3.182-3.182a.501.501 0 00-.707-.708L8 682.293l-2.828-2.829a.5.5 0 00-.707.708l3.181 3.182zM7.5 5.022a.5.5 0 001 0h-1zm1 10.044a.5.5 0 10-1 0h1zm-1 10.044a.5.5 0 001 0h-1zm1 10.044a.5.5 0 00-1 0h1zm-1 10.044a.5.5 0 101 0h-1zm1 10.045a.5.5 0 00-1 0h1zm-1 10.044a.5.5 0 001 0h-1zm1 10.044a.5.5 0 10-1 0h1zm-1 10.044a.5.5 0 101 0h-1zm1 10.044a.5.5 0 00-1 0h1zm-1 10.044a.5.5 0 001 0h-1zm1 10.044a.5.5 0 00-1 0h1zm-1 10.044a.5.5 0 101 0h-1zm1 10.045a.5.5 0 10-1 0h1zm-1 10.044a.5.5 0 001 0h-1zm1 10.044a.5.5 0 00-1 0h1zm-1 10.044a.5.5 0 001 0h-1zm1 10.044a.5.5 0 00-1 0h1zm-1 10.044a.5.5 0 001 0h-1zm1 10.044a.5.5 0 00-1 0h1zm-1 10.044a.5.5 0 101 0h-1zm1 10.045a.5.5 0 10-1 0h1zm-1 10.044a.5.5 0 001 0h-1zm1 10.044a.5.5 0 00-1 0h1zm-1 10.044a.5.5 0 001 0h-1zm1 10.044a.5.5 0 00-1 0h1zm-1 10.044a.5.5 0 001 0h-1zm1 10.044a.5.5 0 00-1 0h1zm-1 10.044a.5.5 0 101 0h-1zm1 10.044a.5.5 0 00-1 0h1zm-1 10.045a.5.5 0 001 0h-1zm1 10.044a.5.5 0 00-1 0h1zm-1 10.044a.5.5 0 001 0h-1zm1 10.044a.5.5 0 00-1 0h1zm-1 10.044a.5.5 0 001 0h-1zm1 10.044a.5.5 0 00-1 0h1zm-1 10.044a.5.5 0 101 0h-1zm1 10.045a.5.5 0 10-1 0h1zm-1 10.044a.5.5 0 001 0h-1zm1 10.044a.5.5 0 00-1 0h1zm-1 10.044a.5.5 0 001 0h-1zm1 10.044a.5.5 0 00-1 0h1zm-1 10.044a.5.5 0 001 0h-1zm1 10.044a.5.5 0 00-1 0h1zm-1 10.044a.5.5 0 101 0h-1zm1 10.045a.5.5 0 10-1 0h1zm-1 10.044a.5.5 0 001 0h-1zm1 10.044a.5.5 0 00-1 0h1zm-1 10.044a.5.5 0 001 0h-1zm1 10.044a.5.5 0 00-1 0h1zm-1 10.044a.5.5 0 001 0h-1zm1 10.044a.5.5 0 00-1 0h1zm-1 10.044a.5.5 0 101 0h-1zm1 10.045a.5.5 0 10-1 0h1zm-1 10.044a.5.5 0 001 0h-1zm1 10.044a.5.5 0 00-1 0h1zm-1 10.044a.5.5 0 001 0h-1zm1 10.044a.5.5 0 00-1 0h1zm-1 10.044a.5.5 0 001 0h-1zm1 10.044a.5.5 0 00-1 0h1zm-1 10.044a.5.5 0 101 0h-1zm1 10.045a.5.5 0 10-1 0h1zm-1 10.044a.5.5 0 001 0h-1zm1 10.044a.5.5 0 00-1 0h1zm-1 10.044a.5.5 0 001 0h-1zm1 10.044a.5.5 0 00-1 0h1zm-1 10.044a.5.5 0 001 0h-1zm1 10.044a.5.5 0 00-1 0h1zM7.5 0v5.022h1V0h-1zm0 15.066V25.11h1V15.066h-1zm0 20.088v10.044h1V35.154h-1zm0 20.089v10.044h1V55.243h-1zm0 20.088v10.044h1V75.331h-1zm0 20.088v10.044h1V95.419h-1zm0 20.088v10.044h1v-10.044h-1zm0 20.089v10.044h1v-10.044h-1zm0 20.088v10.044h1v-10.044h-1zm0 20.088v10.044h1v-10.044h-1zm0 20.088v10.044h1V195.86h-1zm0 20.089v10.044h1v-10.044h-1zm0 20.088v10.044h1v-10.044h-1zm0 20.088v10.044h1v-10.044h-1zm0 20.088v10.044h1v-10.044h-1zm0 20.088v10.045h1v-10.045h-1zm0 20.089v10.044h1V316.39h-1zm0 20.088v10.044h1v-10.044h-1zm0 20.088v10.044h1v-10.044h-1zm0 20.089v10.044h1v-10.044h-1zm0 20.088v10.044h1v-10.044h-1zm0 20.088v10.044h1v-10.044h-1zm0 20.088v10.044h1v-10.044h-1zm0 20.089v10.044h1v-10.044h-1zm0 20.088v10.044h1v-10.044h-1zm0 20.088v10.044h1v-10.044h-1zm0 20.088v10.044h1v-10.044h-1zm0 20.089v10.044h1v-10.044h-1zm0 20.088v10.044h1v-10.044h-1zm0 20.088v10.044h1v-10.044h-1zm0 20.088v10.044h1v-10.044h-1zm0 20.089v10.044h1v-10.044h-1zm0 20.088v10.044h1v-10.044h-1zm0 20.088v10.044h1V657.89h-1zm0 20.088V683h1v-5.022h-1zm-.207 5.729a1 1 0 001.414 0l6.364-6.364a1 1 0 10-1.414-1.414L8 681.586l-5.657-5.657a1 1 0 10-1.414 1.414l6.364 6.364zM7 5.022a1 1 0 002 0H7zm2 10.044a1 1 0 10-2 0h2zM7 25.11a1 1 0 102 0H7zm2 10.044a1 1 0 10-2 0h2zM7 45.198a1 1 0 102 0H7zm2 10.045a1 1 0 00-2 0h2zM7 65.287a1 1 0 102 0H7zM9 75.33a1 1 0 10-2 0h2zM7 85.375a1 1 0 102 0H7zm2 10.044a1 1 0 10-2 0h2zm-2 10.044a1 1 0 102 0H7zm2 10.044a1 1 0 00-2 0h2zm-2 10.044a1 1 0 102 0H7zm2 10.045a1 1 0 10-2 0h2zM7 145.64a1 1 0 002 0H7zm2 10.044a1 1 0 00-2 0h2zm-2 10.044a1 1 0 002 0H7zm2 10.044a1 1 0 00-2 0h2zm-2 10.044a1 1 0 002 0H7zm2 10.044a1 1 0 00-2 0h2zm-2 10.044a1 1 0 102 0H7zm2 10.045a1 1 0 10-2 0h2zm-2 10.044a1 1 0 002 0H7zm2 10.044a1 1 0 10-2 0h2zm-2 10.044a1 1 0 002 0H7zm2 10.044a1 1 0 00-2 0h2zm-2 10.044a1 1 0 002 0H7zm2 10.044a1 1 0 00-2 0h2zm-2 10.044a1 1 0 102 0H7zm2 10.044a1 1 0 00-2 0h2zm-2 10.045a1 1 0 002 0H7zm2 10.044a1 1 0 10-2 0h2zm-2 10.044a1 1 0 002 0H7zm2 10.044a1 1 0 00-2 0h2zm-2 10.044a1 1 0 002 0H7zm2 10.044a1 1 0 00-2 0h2zM7 366.61a1 1 0 102 0H7zm2 10.045a1 1 0 10-2 0h2zm-2 10.044a1 1 0 002 0H7zm2 10.044a1 1 0 10-2 0h2zm-2 10.044a1 1 0 002 0H7zm2 10.044a1 1 0 00-2 0h2zm-2 10.044a1 1 0 002 0H7zm2 10.044a1 1 0 00-2 0h2zm-2 10.044a1 1 0 102 0H7zm2 10.045a1 1 0 10-2 0h2zm-2 10.044a1 1 0 002 0H7zm2 10.044a1 1 0 00-2 0h2zM7 487.14a1 1 0 002 0H7zm2 10.044a1 1 0 00-2 0h2zm-2 10.044a1 1 0 002 0H7zm2 10.044a1 1 0 00-2 0h2zm-2 10.044a1 1 0 102 0H7zm2 10.045a1 1 0 10-2 0h2zm-2 10.044a1 1 0 002 0H7zm2 10.044a1 1 0 10-2 0h2zm-2 10.044a1 1 0 002 0H7zm2 10.044a1 1 0 00-2 0h2zm-2 10.044a1 1 0 002 0H7zm2 10.044a1 1 0 00-2 0h2zm-2 10.044a1 1 0 102 0H7zm2 10.045a1 1 0 10-2 0h2zm-2 10.044a1 1 0 002 0H7zm2 10.044a1 1 0 00-2 0h2zm-2 10.044a1 1 0 002 0H7zm2 10.044a1 1 0 00-2 0h2zm-2 10.044a1 1 0 102 0H7zm2 10.044a1 1 0 00-2 0h2zM7 0v5.022h2V0H7zm0 15.066V25.11h2V15.066H7zm0 20.088v10.044h2V35.154H7zm0 20.089v10.044h2V55.243H7zM7 75.33v10.044h2V75.331H7zm0 20.088v10.044h2V95.419H7zm0 20.088v10.044h2v-10.044H7zm0 20.089v10.044h2v-10.044H7zm0 20.088v10.044h2v-10.044H7zm0 20.088v10.044h2v-10.044H7zm0 20.088v10.044h2V195.86H7zm0 20.089v10.044h2v-10.044H7zm0 20.088v10.044h2v-10.044H7zm0 20.088v10.044h2v-10.044H7zm0 20.088v10.044h2v-10.044H7zM7 296.3v10.045h2V296.3H7zm0 20.089v10.044h2V316.39H7zm0 20.088v10.044h2v-10.044H7zm0 20.088v10.044h2v-10.044H7zm0 20.089v10.044h2v-10.044H7zm0 20.088v10.044h2v-10.044H7zm0 20.088v10.044h2V416.83H7zm0 20.088v10.044h2v-10.044H7zm0 20.089v10.044h2v-10.044H7zm0 20.088v10.044h2v-10.044H7zm0 20.088v10.044h2v-10.044H7zm0 20.088v10.044h2v-10.044H7zm0 20.089v10.044h2V537.36H7zm0 20.088v10.044h2v-10.044H7zm0 20.088v10.044h2v-10.044H7zm0 20.088v10.044h2v-10.044H7zm0 20.089v10.044h2v-10.044H7zm0 20.088v10.044h2v-10.044H7zm0 20.088v10.044h2V657.89H7zm0 20.088V683h2v-5.022H7z" fill="#EAD1D0"/></svg>