<svg xmlns="http://www.w3.org/2000/svg" width="20" height="17pt" viewBox="0 0 15 17"><path d="M12.754 3.223a7.41 7.41 0 00-5.258-2.16C3.398 1.063.062 4.37.062 8.433c0 1.297.344 2.567.993 3.684L0 15.937l3.941-1.027a7.432 7.432 0 003.551.899h.004C11.59 15.809 15 12.5 15 8.438c0-1.97-.844-3.82-2.246-5.215zM7.496 14.566a6.25 6.25 0 01-3.148-.851l-.223-.133-2.336.605.621-2.261-.148-.23a6.087 6.087 0 01-.942-3.262c0-3.375 2.77-6.125 6.18-6.125 1.652 0 3.2.636 4.367 1.796 1.164 1.157 1.88 2.696 1.88 4.332 0 3.38-2.845 6.13-6.25 6.13zm3.39-4.59a32.885 32.885 0 00-1.269-.597c-.172-.063-.297-.094-.418.094-.125.187-.48.597-.59.722-.109.125-.218.14-.402.047-1.094-.539-1.809-.965-2.527-2.191-.192-.324.191-.301.543-1.004.062-.125.03-.23-.016-.324-.047-.094-.418-1-.57-1.368-.153-.359-.305-.308-.422-.316-.106-.004-.23-.004-.352-.004a.693.693 0 00-.496.227c-.172.187-.652.633-.652 1.539 0 .906.668 1.781.758 1.906.093.121 1.308 1.98 3.175 2.781 1.176.504 1.641.547 2.23.461.356-.05 1.099-.445 1.25-.875.157-.433.157-.8.11-.879-.047-.082-.168-.129-.351-.218zm0 0" fill="#961914" id="surface1"/></svg>