<svg width="40" height="40" fill="none" xmlns="http://www.w3.org/2000/svg"><path d="M14.697 28.839c-1.768 5.303-8.84 5.303-8.84 5.303s0-7.07 5.304-8.839m19.446-8.838L20 27.07 12.929 20 23.535 9.393c4.017-4.016 8.033-3.977 9.746-3.721a1.244 1.244 0 011.047 1.047c.256 1.713.295 5.73-3.721 9.745z" stroke="#961914" stroke-width="2" stroke-linecap="round" stroke-linejoin="round"/><path d="M28.839 18.232v10.089a1.25 1.25 0 01-.366.884l-5.054 5.053a1.25 1.25 0 01-2.11-.638L20 27.07m1.768-15.909h-10.09a1.25 1.25 0 00-.883.366l-5.053 5.054a1.25 1.25 0 00.638 2.11L12.93 20" stroke="#961914" stroke-width="2" stroke-linecap="round" stroke-linejoin="round"/></svg>